<?xml version="1.0" encoding="utf-8"?>
<!-- Generator: Adobe Illustrator 24.0.1, SVG Export Plug-In . SVG Version: 6.00 Build 0)  -->
<svg version="1.1" id="Layer_1" xmlns="http://www.w3.org/2000/svg" xmlns:xlink="http://www.w3.org/1999/xlink" x="0px" y="0px"
	 viewBox="0 0 256 256" style="enable-background:new 0 0 256 256;" xml:space="preserve">
<style type="text/css">
	.st0{fill:#163951;}
	.st1{fill:#E6E6E6;}
	.st2{fill:#CCCCCC;}
	.st3{fill:#F7931B;}
	.st4{fill:#FFFFFF;}
	.st5{fill:#B9B9B9;}
	.st6{fill:#8B8B8B;}
	.st7{fill:#8C8C8C;}
	.st8{fill:#383838;}
	.st9{fill:#333333;}
	.st10{fill:#151515;}
	.st11{fill:#313131;}
	.st12{fill:none;}
	.st13{fill:#349361;}
	.st14{fill:#C95757;}
</style>
<path class="st0" d="M247.1,0.1H8.8C4,0.1,0,4,0,8.8v238.3c0,4.8,3.9,8.8,8.8,8.8h238.3c4.8,0,8.8-3.9,8.8-8.8V8.8
	C255.9,4,252,0.1,247.1,0.1z"/>
<path class="st1" d="M245.9,36.1H10.1c-3.3,0-6.1,2.7-6.1,6.1V98c0,3.3,2.7,6.1,6.1,6.1h235.8c3.3,0,6.1-2.7,6.1-6.1V42.1
	C251.9,38.8,249.2,36.1,245.9,36.1z"/>
<path class="st2" d="M245.9,110H10.1c-3.3,0-6.1,2.7-6.1,6.1v55.9c0,3.3,2.7,6.1,6.1,6.1h235.8c3.3,0,6.1-2.7,6.1-6.1v-55.9
	C251.9,112.7,249.2,110,245.9,110z"/>
<path class="st1" d="M245.9,184H10.1C6.8,184,4,186.7,4,190v55.9c0,3.3,2.7,6.1,6.1,6.1h235.8c3.3,0,6.1-2.7,6.1-6.1V190
	C251.9,186.7,249.2,184,245.9,184z"/>
<g>
	<path class="st3" d="M39.9,119.2c-13.3,0-24.2,10.8-24.2,24.2c0,13.3,10.8,24.2,24.2,24.2S64,156.8,64,143.4
		C64,130.1,53.2,119.2,39.9,119.2z"/>
	<path class="st4" d="M48.1,145.1c1.9-1.9,2.7-4,2.1-6.6c-0.6-2.6-2.3-4.1-5.1-4.6c0.1-0.2,0.1-0.4,0.1-0.5c0.3-1.3,0.6-2.6,0.9-3.9
		c0.2-0.7,0-0.9-0.6-1c-0.4-0.1-0.7-0.2-1.1-0.3c-0.6-0.1-0.8,0-1,0.6c-0.3,1.3-0.6,2.7-1,4c0,0.2-0.1,0.3-0.1,0.5
		c-0.9-0.2-1.7-0.4-2.6-0.6c0.4-1.5,0.7-3,1.1-4.5c0.1-0.6,0-0.7-0.5-0.9c-0.4-0.1-0.8-0.2-1.2-0.3c-0.6-0.1-0.8,0-0.9,0.6
		c-0.3,1-0.5,2.1-0.7,3.1c-0.1,0.5-0.2,0.9-0.3,1.4c-0.2-0.1-0.4-0.1-0.5-0.1c-1.6-0.4-3.1-0.7-4.7-1.1c-0.6-0.1-0.7,0-0.9,0.5
		c-0.1,0.4-0.2,0.7-0.3,1.1c-0.2,0.7-0.1,0.8,0.5,1c1.5,0.6,2.2,1.9,1.8,3.4c-0.8,3.4-1.6,6.9-2.5,10.3c-0.4,1.4-1.2,2-2.7,1.9
		c-0.4,0-0.6,0.1-0.8,0.5c-0.2,0.4-0.3,0.8-0.4,1.3c-0.1,0.4,0,0.8,0.5,1c1.5,0.4,2.5,0.6,3.5,0.8c0.4,0.1,0.8,0.2,1.3,0.3
		c-0.1,0.2-0.1,0.4-0.1,0.5c-0.3,1.3-0.6,2.7-1,4c-0.1,0.5,0,0.7,0.5,0.9c0.4,0.1,0.8,0.2,1.3,0.3c0.5,0.1,0.7,0,0.8-0.5
		c0.3-1.4,0.7-2.7,1-4.1c0-0.2,0.1-0.3,0.1-0.5c0.9,0.2,1.7,0.4,2.6,0.6c0,0.2-0.1,0.4-0.1,0.5c-0.3,1.3-0.6,2.7-1,4
		c-0.1,0.5,0,0.8,0.6,0.9c0.3,0.1,0.6,0.2,0.9,0.2c0.9,0.2,1,0.1,1.2-0.7c0.3-1.3,0.6-2.5,0.9-3.8c0-0.2,0.1-0.3,0.1-0.5
		c0.8,0.2,1.6,0.4,2.3,0.5c0.6,0.1,1.2,0.2,1.7,0.1c3.4-0.4,5.9-3.8,5.3-7.3C49.3,147,48.9,146,48.1,145.1z M38.9,136.6
		c1.4,0.3,2.8,0.6,4.1,1c1.4,0.4,2.3,2,1.9,3.3c-0.4,1.5-1.8,2.3-3.3,2c-1.3-0.3-2.6-0.6-3.8-0.9c0,0-0.1,0-0.1-0.1
		C38.1,140.1,38.5,138.4,38.9,136.6z M42.3,151.1c-0.4,0.1-0.9,0.1-1.3,0c-1.7-0.4-3.3-0.8-5-1.2c-0.1,0-0.1,0-0.2-0.1
		c0.4-1.8,0.9-3.6,1.3-5.4c0.4,0.1,0.7,0.2,1,0.2c1.4,0.3,2.9,0.7,4.3,1c1.3,0.3,2.1,1.5,2.1,2.7C44.4,149.7,43.5,150.8,42.3,151.1z
		"/>
</g>
<g>
	<path class="st5" d="M39.5,193.3c-13.3,0-24.2,10.8-24.2,24.2c0,13.3,10.8,24.2,24.2,24.2c13.3,0,24.2-10.8,24.2-24.2
		C63.7,204.1,52.8,193.3,39.5,193.3z"/>
	<polygon class="st4" points="37.8,226.2 39.7,218.9 43.5,217.6 44.7,213.1 40.9,214.5 44.1,202.7 43.8,202.7 34.3,202.7 
		30.3,218.3 27.3,219.4 26.1,223.9 29.1,222.8 26.7,232.3 51,232.3 52.9,226.2 	"/>
</g>
<g>
	<g>
		<polygon class="st6" points="22,75.2 40,99.3 40,85.3 40.1,85.3 		"/>
		<polygon class="st7" points="22,72.1 40,64.2 40,64.2 40,42 		"/>
		<polygon class="st8" points="22,72.1 40,81.8 40,64.2 		"/>
		<polygon class="st9" points="40.1,42 40,42 40,64.2 40.1,64.2 58,72.1 		"/>
		<polygon class="st10" points="40.1,64.2 40,64.2 40,81.8 40.1,81.8 58,72.1 		"/>
		<polygon class="st11" points="40.1,85.3 40,85.3 40,99.3 40.1,99.3 58,75.2 		"/>
	</g>
</g>
<g>
	<rect x="0" y="8.4" class="st12" width="256" height="25.9"/>
	<path class="st4" d="M30.3,27.3c-1.8,0-3.4-0.8-4.1-2.1c-0.7-1.2-0.9-2.2-0.9-5V15c0-3,0.2-4,1.1-5.1c0.9-1.1,2.2-1.7,3.9-1.7
		c3.1,0,5.1,2.1,5.1,5.6c0,0.4-0.4,0.7-0.8,0.7h-1.3c-0.4,0-0.7-0.3-0.8-0.7c-0.1-1.9-0.9-2.9-2.2-2.9c-1.6,0-2.1,1-2.1,3.6v6.1
		c0,3,0.5,4,2.1,4c1.5,0,2.2-1.1,2.3-3.4c0-0.4,0.3-0.7,0.8-0.7h1.3c0.5,0,0.8,0.3,0.8,0.8C35.4,25.1,33.6,27.3,30.3,27.3z"/>
	<path class="st4" d="M47.4,27h-1.5c-0.5,0-0.8-0.3-1-0.8l-2-6.1c-0.2-0.5-0.4-0.7-1-0.7h-0.3c-0.5,0-0.8,0.2-0.8,0.7v6.1
		c0,0.4-0.3,0.7-0.7,0.7h-1.4c-0.4,0-0.7-0.3-0.7-0.7V9.2c0-0.4,0.3-0.8,0.7-0.8h3.8c3.5,0,5.3,1.8,5.3,5.3c0,2.1-0.6,3.6-1.9,4.5
		c-0.4,0.3-0.5,0.5-0.4,0.9l2.3,7.1C48,26.6,47.8,27,47.4,27z M42,11.1h-0.3c-0.4,0-0.8,0.3-0.8,0.8V16c0,0.4,0.3,0.8,0.8,0.8H42
		c2.2,0,2.9-0.8,2.9-2.9C45,11.8,44.2,11.1,42,11.1z"/>
	<path class="st4" d="M56.5,19c-0.2,0.5-0.3,0.9-0.3,1.5v5.7c0,0.4-0.4,0.8-0.8,0.8h-1.4c-0.4,0-0.8-0.3-0.8-0.7v-5.7
		c0-0.6-0.1-1-0.3-1.5l-3.6-9.8c-0.2-0.4,0-0.8,0.5-0.8h1.7c0.4,0,0.8,0.3,0.9,0.7l2,6.4c0.2,0.5,0.3,0.5,0.5,0l2.1-6.4
		c0.2-0.5,0.5-0.7,1-0.7h1.6c0.5,0,0.6,0.3,0.5,0.8L56.5,19z"/>
	<path class="st4" d="M67.1,19.5h-1.2c-0.4,0-0.7,0.3-0.7,0.8v6c0,0.4-0.4,0.7-0.8,0.7h-1.4c-0.4,0-0.7-0.3-0.7-0.7V9.2
		c0-0.4,0.3-0.8,0.7-0.8h4c1.9,0,3,0.4,3.9,1.2c1,1,1.5,2.3,1.5,4.2C72.5,17.8,70.8,19.5,67.1,19.5z M66.5,11.1h-0.5
		c-0.4,0-0.7,0.3-0.7,0.8v4.3c0,0.5,0.3,0.7,0.7,0.7h0.5c2.3,0,3-0.7,3-2.8C69.5,11.8,68.8,11.1,66.5,11.1z"/>
	<path class="st4" d="M83.1,11.3H81c-0.4,0-0.8,0.3-0.8,0.8v14.2c0,0.4-0.4,0.7-0.8,0.7h-1.4c-0.4,0-0.7-0.3-0.7-0.7V12
		c0-0.4-0.4-0.7-0.8-0.7h-2.1c-0.4,0-0.7-0.4-0.7-0.8V9.2c0-0.4,0.4-0.7,0.7-0.7h8.6c0.4,0,0.7,0.3,0.7,0.7v1.4
		C83.8,11,83.5,11.3,83.1,11.3z"/>
	<path class="st4" d="M94.6,25.5c-0.9,1.2-2.3,1.8-4,1.8c-1.7,0-3.2-0.6-4-1.8c-0.8-1.1-1.1-2.3-1.1-4.4v-6.7c0-2.1,0.3-3.4,1.1-4.4
		c0.9-1.2,2.2-1.8,4-1.8c1.7,0,3.2,0.6,4,1.8c0.8,1.1,1.1,2.3,1.1,4.4v6.7C95.7,23.2,95.4,24.5,94.6,25.5z M92.8,14.4
		c0-2.7-0.6-3.6-2.2-3.6c-1.6,0-2.2,0.9-2.2,3.6v6.7c0,2.6,0.5,3.5,2.2,3.5c1.6,0,2.2-0.9,2.2-3.5V14.4z"/>
	<path class="st4" d="M108.6,19.5h-1.2c-0.4,0-0.7,0.3-0.7,0.8v6c0,0.4-0.4,0.7-0.8,0.7h-1.4c-0.4,0-0.7-0.3-0.7-0.7V9.2
		c0-0.4,0.3-0.8,0.7-0.8h4c1.9,0,3,0.4,3.9,1.2c1,1,1.5,2.3,1.5,4.2C114,17.8,112.3,19.5,108.6,19.5z M108,11.1h-0.5
		c-0.4,0-0.7,0.3-0.7,0.8v4.3c0,0.5,0.3,0.7,0.7,0.7h0.5c2.3,0,3-0.7,3-2.8C111,11.8,110.3,11.1,108,11.1z"/>
	<path class="st4" d="M125.9,27h-1.5c-0.5,0-0.8-0.3-1-0.8l-2-6.1c-0.2-0.5-0.4-0.7-1-0.7h-0.3c-0.5,0-0.8,0.2-0.8,0.7v6.1
		c0,0.4-0.3,0.7-0.7,0.7h-1.4c-0.4,0-0.7-0.3-0.7-0.7V9.2c0-0.4,0.3-0.8,0.7-0.8h3.8c3.5,0,5.3,1.8,5.3,5.3c0,2.1-0.6,3.6-1.9,4.5
		c-0.4,0.3-0.5,0.5-0.4,0.9l2.3,7.1C126.5,26.6,126.3,27,125.9,27z M120.5,11.1h-0.3c-0.4,0-0.8,0.3-0.8,0.8V16
		c0,0.4,0.3,0.8,0.8,0.8h0.3c2.2,0,2.9-0.8,2.9-2.9C123.4,11.8,122.7,11.1,120.5,11.1z"/>
	<path class="st4" d="M131.4,27H130c-0.4,0-0.7-0.3-0.7-0.7V9.2c0-0.4,0.3-0.7,0.7-0.7h1.4c0.4,0,0.7,0.3,0.7,0.7v17.2
		C132.2,26.6,131.8,27,131.4,27z"/>
	<path class="st4" d="M140.4,27.3c-1.8,0-3.4-0.8-4.1-2.1c-0.7-1.2-0.9-2.2-0.9-5V15c0-3,0.2-4,1.1-5.1c0.9-1.1,2.2-1.7,4-1.7
		c3.1,0,5.1,2.1,5.1,5.6c0,0.4-0.4,0.7-0.8,0.7h-1.3c-0.4,0-0.7-0.3-0.8-0.7c-0.1-1.9-0.9-2.9-2.2-2.9c-1.6,0-2.1,1-2.1,3.6v6.1
		c0,3,0.5,4,2.1,4c1.5,0,2.2-1.1,2.3-3.4c0-0.4,0.3-0.7,0.8-0.7h1.3c0.5,0,0.8,0.3,0.8,0.8C145.5,25.1,143.8,27.3,140.4,27.3z"/>
	<path class="st4" d="M156.7,26.3c0,0.4-0.3,0.7-0.8,0.7H149c-0.4,0-0.8-0.3-0.8-0.7V9.2c0-0.3,0.4-0.8,0.8-0.8h6.9
		c0.5,0,0.7,0.3,0.7,0.8v1.2c0,0.4-0.2,0.7-0.7,0.7h-4.1c-0.5,0-0.8,0.4-0.8,0.9v3.3c0,0.4,0.3,0.7,0.8,0.7h3.5
		c0.5,0,0.7,0.3,0.7,0.8v1.2c0,0.4-0.3,0.7-0.7,0.7h-3.5c-0.4,0-0.7,0.4-0.7,0.8v4.2c0,0.4,0.2,0.8,0.7,0.8h4.1
		c0.4,0,0.8,0.4,0.8,0.8V26.3z"/>
	<path class="st4" d="M169.1,19.5h-1.2c-0.4,0-0.7,0.3-0.7,0.8v6c0,0.4-0.4,0.7-0.8,0.7h-1.4c-0.4,0-0.7-0.3-0.7-0.7V9.2
		c0-0.4,0.3-0.8,0.7-0.8h4c1.9,0,3,0.4,3.9,1.2c1,1,1.5,2.3,1.5,4.2C174.5,17.8,172.8,19.5,169.1,19.5z M168.5,11.1h-0.5
		c-0.4,0-0.7,0.3-0.7,0.8v4.3c0,0.5,0.3,0.7,0.7,0.7h0.5c2.3,0,3-0.7,3-2.8C171.5,11.8,170.8,11.1,168.5,11.1z"/>
	<path class="st4" d="M184.9,27h-7.1c-0.4,0-0.7-0.3-0.7-0.7V9.2c0-0.4,0.3-0.8,0.7-0.8h1.4c0.4,0,0.8,0.3,0.8,0.8v14.4
		c0,0.4,0.3,0.8,0.7,0.8h4.3c0.5,0,0.7,0.3,0.7,0.8v1.2C185.6,26.7,185.3,27,184.9,27z"/>
	<path class="st4" d="M196.2,25.6c-0.9,1.1-2.2,1.7-3.8,1.6c-1.7,0-3.1-0.6-3.8-1.6c-0.8-1.1-1.1-2.3-1.1-4.6V9.2
		c0-0.4,0.3-0.8,0.7-0.8h1.4c0.5,0,0.8,0.3,0.8,0.8v12.3c0,2.2,0.6,3.1,2.1,3.1s2-0.9,2-3.1V9.2c0-0.4,0.3-0.8,0.8-0.8h1.4
		c0.4,0,0.8,0.4,0.8,0.8V21C197.3,23.4,197,24.6,196.2,25.6z"/>
	<path class="st4" d="M209.5,27h-1.4c-0.6,0-0.6-0.5-0.8-0.5c-0.1,0-0.2,0.1-0.3,0.2c-0.6,0.4-1.3,0.6-2.2,0.6
		c-1.7,0-3.1-0.8-3.8-2.2c-0.6-1.2-0.8-2.3-0.8-5V15c0-3,0.2-4,1-5.1c0.9-1.1,2.3-1.7,3.9-1.7c3.4,0,5,2.4,5,5.6
		c0,0.5-0.3,0.7-0.7,0.7H208c-0.5,0-0.7-0.3-0.7-0.8c-0.1-1.9-0.8-2.9-2.2-2.9c-1.6,0-2.1,1-2.1,3.7v5.6c0,3.3,0.6,4.5,2.3,4.5
		c1.5,0,2.1-1.1,2.1-3.6c0-0.5-0.2-0.9-0.8-0.9h-0.9c-0.4,0-0.7-0.3-0.7-0.8v-0.8c0-0.5,0.3-0.8,0.7-0.8h3.7c0.4,0,0.8,0.3,0.8,0.8
		v7.7C210.2,26.7,209.8,27,209.5,27z"/>
	<path class="st4" d="M215.9,27h-1.4c-0.4,0-0.7-0.3-0.7-0.7V9.2c0-0.4,0.3-0.7,0.7-0.7h1.4c0.4,0,0.7,0.3,0.7,0.7v17.2
		C216.6,26.6,216.2,27,215.9,27z"/>
	<path class="st4" d="M229.8,27h-1.4c-0.5,0-0.9-0.3-1-0.8l-4-9.7c-0.2-0.4-0.3-0.3-0.3,0v9.7c0,0.4-0.3,0.8-0.8,0.8h-1.4
		c-0.4,0-0.7-0.3-0.7-0.7V9.2c0-0.4,0.3-0.8,0.7-0.8h1.4c0.5,0,0.9,0.3,1,0.7l4.1,9.7c0.2,0.4,0.3,0.3,0.3,0V9.2
		c0-0.4,0.3-0.8,0.7-0.8h1.4c0.4,0,0.8,0.3,0.8,0.7v17.1C230.6,26.6,230.2,27,229.8,27z"/>
</g>
<g>
	<g>
		<path class="st13" d="M163.6,71.1h-5.9c-0.7,0-1.1,0.4-1.1,1.2v5.8c0,0.5-0.6,1.1-1.1,1.1h-2.2c-0.5,0-1.1-0.6-1.1-1.1v-5.8
			c0-0.8-0.5-1.2-1.2-1.2h-5.8c-0.5,0-1.1-0.7-1.1-1.2v-2.2c0-0.5,0.6-1.1,1.1-1.1h5.8c0.6,0,1.2-0.3,1.2-1.1v-5.9
			c0-0.5,0.7-1.1,1.2-1.1h2.2c0.5,0,1.1,0.6,1.1,1.1v5.9c0,0.7,0.5,1.1,1.1,1.1h5.8c0.6,0,1.2,0.6,1.2,1.1V70
			C164.7,70.5,164.1,71.1,163.6,71.1z"/>
		<path class="st13" d="M180.3,82.6c-1.2,1.8-3.2,2.8-5.7,2.8c-2.5,0-4.5-1-5.6-2.8c-1.1-1.7-1.5-3.5-1.5-6.8V65.5
			c0-3.3,0.4-5.2,1.5-6.8c1.2-1.8,3.2-2.7,5.6-2.7c2.5,0,4.6,1,5.7,2.7c1.1,1.7,1.5,3.5,1.5,6.8v10.4
			C181.8,79.2,181.4,81.1,180.3,82.6z M177.6,64.6c0-3.5-0.8-4.7-3-4.7c-2.2,0-3,1.2-3,4.7v12.2c0,3.5,0.8,4.7,3,4.7
			c2.3,0,3-1.2,3-4.7V64.6z"/>
		<path class="st13" d="M188.5,84.9h-1.9c-0.6,0-1.1-0.6-1.1-1.2v-2.2c0-0.6,0.6-1.2,1.1-1.2h1.9c0.6,0,1.2,0.6,1.2,1.1v2.3
			C189.6,84.3,189,84.9,188.5,84.9z"/>
		<path class="st13" d="M205.9,82.7c-1.2,1.8-3,2.7-5.6,2.7c-4.7,0-6.8-3.3-6.8-7.2c0-0.8,0.5-1.3,1.3-1.3h1.4c1,0,1.4,0.4,1.4,1.3
			c0.1,2.2,1,3.2,2.6,3.2c2.4,0,2.9-1.3,2.9-6.6c0-4.9-0.7-6.4-2.9-6.4c-0.8,0-1.3,0.4-1.8,1c-0.8,0.8-1,1.4-2.2,1.4h-1.4
			c-0.6,0-1.2-0.6-1.2-1.2V57.7c0-0.8,0.4-1.3,1.2-1.3h10.2c0.8,0,1.2,0.5,1.2,1.3V59c0,0.6-0.6,1.2-1.2,1.2h-6.5
			c-0.7,0-1.1,0.6-1.1,1.2v4c0,1.2,0.6,0.6,1.1,0.3c1-0.6,2-0.9,3.2-0.9c2,0,3.6,0.9,4.5,2.4c1,1.7,1.3,3.4,1.3,7
			C207.5,79.2,207.1,80.9,205.9,82.7z"/>
		<path class="st13" d="M225.8,77.7h-0.9c-0.7,0-1.1,0.6-1.1,1.2v4.8c0,0.8-0.3,1.2-1.1,1.2h-1.8c-0.8,0-1.2-0.4-1.2-1.2V79
			c0-0.8-0.3-1.3-1.2-1.3h-6.5c-0.7,0-1.1-0.6-1.1-1.2v-2c0-1,0.3-1.8,1.2-3.6l6.6-13.2c0.4-0.8,0.8-1.3,1.8-1.3h2.2
			c0.8,0,1.1,0.6,1.1,1.3v14.8c0,0.8,0.4,1.3,1.2,1.3h0.9c0.7,0,1.2,0.6,1.2,1.3v1.4C226.9,77.2,226.5,77.7,225.8,77.7z M219.5,64.7
			c0-0.6-0.3-0.7-0.6,0l-3.8,7.9c-0.2,0.5-0.1,1.2,0.6,1.2h2.6c0.9,0,1.2-0.4,1.2-1.3V64.7z"/>
		<path class="st13" d="M231.7,75.6c-2.2,0-2.6-1.7-2.6-3.5v-3.8c0-1.8,0.4-3.5,2.6-3.5c2.2,0,2.6,1.7,2.6,3.5v3.8
			C234.4,73.9,233.9,75.6,231.7,75.6z M232.6,68.1c0-1-0.2-1.4-0.9-1.4c-0.6,0-0.9,0.4-0.9,1.4v4.1c0,1,0.2,1.4,0.9,1.4
			c0.7,0,0.9-0.4,0.9-1.4V68.1z M233.3,84.1c-0.2,0.5-0.4,0.8-1,0.8h-0.8c-0.5,0-0.3-0.6-0.2-0.8l7.6-18.3c0.2-0.4,0.4-0.8,0.9-0.8
			h0.8c0.4,0,0.3,0.6,0.3,0.8L233.3,84.1z M240.5,85.2c-2.1,0-2.6-1.7-2.6-3.5v-3.8c0-1.8,0.5-3.5,2.6-3.5c2.1,0,2.6,1.7,2.6,3.5
			v3.8C243.1,83.5,242.6,85.2,240.5,85.2z M241.4,77.8c0-1-0.2-1.4-0.9-1.4c-0.6,0-0.9,0.4-0.9,1.4v4.1c0,1,0.2,1.4,0.9,1.4
			c0.7,0,0.9-0.3,0.9-1.4V77.8z"/>
	</g>
</g>
<g>
	<rect x="134" y="130.4" class="st12" width="110" height="35.6"/>
	<path class="st13" d="M166.8,145.1h-5.9c-0.7,0-1.1,0.4-1.1,1.2v5.8c0,0.5-0.6,1.1-1.1,1.1h-2.2c-0.5,0-1.1-0.6-1.1-1.1v-5.8
		c0-0.8-0.5-1.2-1.2-1.2h-5.8c-0.5,0-1.1-0.7-1.1-1.2v-2.2c0-0.5,0.6-1.1,1.1-1.1h5.8c0.6,0,1.2-0.3,1.2-1.1v-5.9
		c0-0.5,0.7-1.1,1.2-1.1h2.2c0.5,0,1.1,0.6,1.1,1.1v5.9c0,0.7,0.5,1.1,1.1,1.1h5.8c0.6,0,1.2,0.6,1.2,1.1v2.2
		C167.9,144.4,167.3,145.1,166.8,145.1z"/>
	<path class="st13" d="M183.5,156.6c-1.2,1.8-3.2,2.8-5.7,2.8c-2.5,0-4.5-1-5.6-2.8c-1.1-1.7-1.5-3.5-1.5-6.8v-10.4
		c0-3.3,0.4-5.2,1.5-6.8c1.2-1.8,3.2-2.7,5.6-2.7c2.5,0,4.6,1,5.7,2.7c1.1,1.7,1.5,3.5,1.5,6.8v10.4
		C185,153.1,184.6,155,183.5,156.6z M180.8,138.5c0-3.5-0.8-4.7-3-4.7c-2.2,0-3,1.2-3,4.7v12.2c0,3.5,0.8,4.7,3,4.7
		c2.3,0,3-1.2,3-4.7V138.5z"/>
	<path class="st13" d="M191.7,158.9h-1.9c-0.6,0-1.1-0.6-1.1-1.2v-2.2c0-0.6,0.6-1.2,1.1-1.2h1.9c0.6,0,1.2,0.6,1.2,1.1v2.3
		C192.8,158.3,192.2,158.9,191.7,158.9z"/>
	<path class="st13" d="M203.7,159.3c-4.7,0-7.2-3-7.2-8.5c0-3.5,0.6-5.3,2.4-6.5c0.3-0.2,0.6-0.3,0.6-0.6c0-0.3-0.3-0.4-0.6-0.6
		c-1.5-1.1-2.1-2.7-2.1-5.6c0-5,2.4-7.7,6.9-7.7c4.4,0,6.8,2.7,6.8,7.7c0,2.9-0.5,4.5-2,5.6c-0.3,0.2-0.6,0.4-0.6,0.6
		c0,0.3,0.3,0.4,0.6,0.6c1.7,1.2,2.4,3,2.4,6.3C210.9,155.5,209.1,159.3,203.7,159.3z M203.7,146c-2,0-3,1.6-3,4.7s0.9,4.7,3,4.7
		c2,0,3-1.6,3-4.7C206.7,147.5,205.7,146,203.7,146z M203.7,133.8c-1.8,0-2.8,1.4-2.8,4.1c0,2.7,0.9,4,2.8,4c1.8,0,2.7-1.3,2.7-4
		S205.5,133.8,203.7,133.8z"/>
	<path class="st13" d="M226.5,134.7l-5.7,22.9c-0.2,0.7-0.7,1.2-1.4,1.2h-2c-0.8,0-1-0.6-0.8-1.3l5.7-22.1c0.2-0.7-0.1-1.2-0.8-1.2
		h-7c-0.9,0-1.1-0.4-1.1-1.2v-1.4c0-0.7,0.3-1.3,1.1-1.3h11.4c0.7,0,1.2,0.6,1.2,1.3v0.9C226.8,133.2,226.7,133.6,226.5,134.7z"/>
	<path class="st13" d="M231.7,149.5c-2.2,0-2.6-1.7-2.6-3.5v-3.8c0-1.8,0.4-3.5,2.6-3.5c2.2,0,2.6,1.7,2.6,3.5v3.8
		C234.4,147.8,233.9,149.5,231.7,149.5z M232.6,142.1c0-1-0.2-1.4-0.9-1.4c-0.6,0-0.9,0.4-0.9,1.4v4.1c0,1,0.2,1.4,0.9,1.4
		c0.7,0,0.9-0.4,0.9-1.4V142.1z M233.3,158.1c-0.2,0.5-0.4,0.8-1,0.8h-0.8c-0.5,0-0.3-0.6-0.2-0.8l7.6-18.3c0.2-0.4,0.4-0.8,0.9-0.8
		h0.8c0.4,0,0.3,0.6,0.3,0.8L233.3,158.1z M240.5,159.2c-2.1,0-2.6-1.7-2.6-3.5v-3.8c0-1.8,0.5-3.5,2.6-3.5c2.1,0,2.6,1.7,2.6,3.5
		v3.8C243.1,157.5,242.6,159.2,240.5,159.2z M241.4,151.7c0-1-0.2-1.4-0.9-1.4c-0.6,0-0.9,0.4-0.9,1.4v4.1c0,1,0.2,1.4,0.9,1.4
		c0.7,0,0.9-0.3,0.9-1.4V151.7z"/>
</g>
<g>
	<rect x="138" y="204.3" class="st12" width="106" height="41.6"/>
	<path class="st14" d="M167.7,222.7h-7.3c-0.5,0-1.1-0.6-1.1-1.2v-1.8c0-0.5,0.5-1.1,1.1-1.1h7.2c0.6,0,1.1,0.6,1.1,1.1v1.8
		C168.8,222.1,168.2,222.7,167.7,222.7z"/>
	<path class="st14" d="M186.1,230.5c-1.2,1.8-3.2,2.8-5.7,2.8c-2.5,0-4.5-1-5.6-2.8c-1.1-1.7-1.5-3.5-1.5-6.8v-10.4
		c0-3.3,0.4-5.2,1.5-6.8c1.2-1.8,3.2-2.7,5.6-2.7c2.5,0,4.6,1,5.7,2.7c1.1,1.7,1.5,3.5,1.5,6.8v10.4
		C187.6,227.1,187.2,229,186.1,230.5z M183.4,212.5c0-3.5-0.8-4.7-3-4.7c-2.2,0-3,1.2-3,4.7v12.2c0,3.5,0.8,4.7,3,4.7
		c2.3,0,3-1.2,3-4.7V212.5z"/>
	<path class="st14" d="M194.3,232.9h-1.9c-0.6,0-1.1-0.6-1.1-1.2v-2.2c0-0.6,0.6-1.2,1.1-1.2h1.9c0.6,0,1.2,0.6,1.2,1.1v2.3
		C195.4,232.3,194.8,232.9,194.3,232.9z"/>
	<path class="st14" d="M208.6,222.6l-3.9,5.1c-0.4,0.6-0.6,1.2,0.4,1.2h6.6c0.8,0,1.1,0.6,1.1,1.3v1.3c0,0.6-0.5,1.2-1.2,1.2h-11.6
		c-0.7,0-1.1-0.6-1.1-1.2v-1.3c0-1.4,0.4-1.9,1.2-2.9c2.5-3.4,5.5-7.2,7.3-10.3c1.2-1.9,1.7-3.7,1.7-5.7c0-2.4-1-3.7-2.8-3.7
		c-1.8,0-2.9,1.3-3,3.6c0,0.8-0.2,1.3-1.2,1.3h-1.8c-0.8,0-1.2-0.5-1.2-1.3c0-4.4,2.6-7.5,7.3-7.5c4.3,0,7,2.8,7,7.6
		C213.5,214.9,212.2,217.9,208.6,222.6z"/>
	<path class="st14" d="M223.3,232.9h-1.9c-0.8,0-1.1-0.6-1.1-1.2v-19.5c0-0.8-0.4-1.3-1.2-1.3h-1.8c-0.9,0-1.2-0.5-1.2-1.4
		c0-1,0.3-1.4,1.2-1.8c1.3-0.6,2.4-1.4,3.3-2.2c0.6-0.5,1.7-1.4,2.5-1.4c0.8,0,1.3,0.6,1.3,1.3v26.2
		C224.5,232.3,224.1,232.9,223.3,232.9z"/>
	<path class="st14" d="M231.7,223.5c-2.2,0-2.6-1.7-2.6-3.5v-3.8c0-1.8,0.4-3.5,2.6-3.5c2.2,0,2.6,1.7,2.6,3.5v3.8
		C234.4,221.8,233.9,223.5,231.7,223.5z M232.6,216c0-1-0.2-1.4-0.9-1.4c-0.6,0-0.9,0.4-0.9,1.4v4.1c0,1,0.2,1.4,0.9,1.4
		c0.7,0,0.9-0.4,0.9-1.4V216z M233.3,232c-0.2,0.5-0.4,0.8-1,0.8h-0.8c-0.5,0-0.3-0.6-0.2-0.8l7.6-18.3c0.2-0.4,0.4-0.8,0.9-0.8h0.8
		c0.4,0,0.3,0.6,0.3,0.8L233.3,232z M240.5,233.1c-2.1,0-2.6-1.7-2.6-3.5v-3.8c0-1.8,0.5-3.5,2.6-3.5c2.1,0,2.6,1.7,2.6,3.5v3.8
		C243.1,231.4,242.6,233.1,240.5,233.1z M241.4,225.7c0-1-0.2-1.4-0.9-1.4c-0.6,0-0.9,0.4-0.9,1.4v4.1c0,1,0.2,1.4,0.9,1.4
		c0.7,0,0.9-0.3,0.9-1.4V225.7z"/>
</g>
<g>
</g>
<g>
</g>
<g>
</g>
<g>
</g>
<g>
</g>
<g>
</g>
<g>
</g>
<g>
</g>
<g>
</g>
<g>
</g>
<g>
</g>
<g>
</g>
<g>
</g>
<g>
</g>
<g>
</g>
<g>
</g>
<g>
</g>
</svg>
